
<svg version="1.1" id="Layer_1" xmlns="http://www.w3.org/2000/svg" xmlns:xlink="http://www.w3.org/1999/xlink" x="0px" y="0px"
	 width="100%" viewBox="0 0 1024 689" enable-background="new 0 0 1024 689" xml:space="preserve">
<path fill="#000000" opacity="0.000000" stroke="none" 
	d="
M735.000000,690.000000 
	C490.000061,690.000000 245.500153,690.000000 1.000164,690.000000 
	C1.000109,460.333466 1.000109,230.666946 1.000055,1.000318 
	C342.333099,1.000212 683.666199,1.000212 1024.999512,1.000106 
	C1024.999634,230.666367 1024.999634,460.332733 1024.999756,689.999512 
	C928.500000,690.000000 832.000000,690.000000 735.000000,690.000000 
M171.359619,378.887909 
	C148.695862,386.040222 133.812836,401.044098 126.813316,423.667511 
	C122.771950,436.729797 122.266815,450.158051 123.975365,463.705109 
	C126.423599,483.117096 134.728516,499.181641 150.590530,511.048370 
	C166.055664,522.618286 183.957596,525.454224 202.579391,525.475952 
	C241.906845,525.521973 281.242035,525.867371 320.558502,525.188782 
	C337.980835,524.888123 355.542603,523.483154 372.729279,520.672729 
	C405.902588,515.248230 434.889496,501.254913 456.807465,474.762817 
	C457.162933,474.333130 457.839294,474.168976 457.715729,474.236572 
	C461.314819,481.619598 464.102020,489.218414 468.411865,495.823792 
	C481.112671,515.289490 500.117554,524.219971 522.738770,525.826904 
	C550.699890,527.813049 574.510803,519.700928 594.077637,498.379852 
	C612.650513,478.141876 632.827881,459.376068 652.309448,439.972717 
	C653.671631,438.616028 655.114563,437.340363 657.389771,435.214081 
	C658.753784,437.072052 659.676270,438.718353 660.955139,440.012451 
	C681.099365,460.396393 701.188354,480.836884 721.536560,501.015778 
	C726.939575,506.373810 732.608826,511.872101 739.123840,515.626221 
	C762.049011,528.836426 786.516602,529.205017 811.104675,521.345886 
	C829.892334,515.340759 842.898010,502.365448 850.628296,484.217224 
	C855.616394,472.507050 856.957764,460.140656 856.964722,447.549713 
	C856.997498,388.225098 857.059814,328.900452 857.079163,269.575836 
	C857.087341,244.580704 857.476257,219.573685 856.833679,194.594162 
	C856.327942,174.934769 849.968567,156.981155 834.688293,143.847565 
	C808.883484,121.668045 778.925049,119.300034 748.358826,130.547150 
	C720.064636,140.958237 706.918518,164.148697 705.314453,193.366028 
	C704.128723,214.962982 704.972290,236.671341 704.912964,258.330078 
	C704.908264,260.040833 704.912292,261.751556 704.912292,263.608307 
	C671.898621,244.759033 639.850525,244.826782 607.450623,264.322235 
	C607.450623,261.560364 607.464722,259.415253 607.448425,257.270386 
	C607.281006,235.280914 607.721252,213.264572 606.755920,191.310074 
	C605.885620,171.518799 597.768005,154.603592 582.320740,141.677032 
	C570.399353,131.701050 556.325989,127.057869 541.086609,125.633850 
	C522.284973,123.876945 503.973053,125.584076 487.781708,136.243179 
	C480.991882,140.713074 475.221710,146.731857 469.272095,151.804230 
	C464.953613,147.729416 460.670502,143.002151 455.713379,139.140060 
	C441.224762,127.851929 424.118988,124.690674 406.322021,124.619667 
	C365.161987,124.455444 324.000671,124.445053 282.840424,124.559280 
	C256.910095,124.631241 231.271988,127.176331 206.707245,136.140533 
	C166.321350,150.878174 138.990860,177.969437 128.022202,220.283615 
	C122.904755,240.025360 122.207581,260.070221 123.955643,280.278595 
	C127.326820,319.251221 143.275269,351.203522 176.108688,373.740112 
	C177.214218,374.498962 178.215042,375.410370 179.791397,376.672302 
	C176.617828,377.494659 174.368546,378.077515 171.359619,378.887909 
z"/>
<path fill="#FBA100" opacity="1.000000" stroke="none" 
	d="
M171.739441,378.774139 
	C174.368546,378.077515 176.617828,377.494659 179.791397,376.672302 
	C178.215042,375.410370 177.214218,374.498962 176.108688,373.740112 
	C143.275269,351.203522 127.326820,319.251221 123.955643,280.278595 
	C122.207581,260.070221 122.904755,240.025360 128.022202,220.283615 
	C138.990860,177.969437 166.321350,150.878174 206.707245,136.140533 
	C231.271988,127.176331 256.910095,124.631241 282.840424,124.559280 
	C324.000671,124.445053 365.161987,124.455444 406.322021,124.619667 
	C424.118988,124.690674 441.224762,127.851929 455.713379,139.140060 
	C460.670502,143.002151 464.953613,147.729416 469.272095,151.804230 
	C475.221710,146.731857 480.991882,140.713074 487.781708,136.243179 
	C503.973053,125.584076 522.284973,123.876945 541.086609,125.633850 
	C556.325989,127.057869 570.399353,131.701050 582.320740,141.677032 
	C597.768005,154.603592 605.885620,171.518799 606.755920,191.310074 
	C607.721252,213.264572 607.281006,235.280914 607.448425,257.270386 
	C607.464722,259.415253 607.450623,261.560364 607.450623,264.322235 
	C639.850525,244.826782 671.898621,244.759033 704.912292,263.608307 
	C704.912292,261.751556 704.908264,260.040833 704.912964,258.330078 
	C704.972290,236.671341 704.128723,214.962982 705.314453,193.366028 
	C706.918518,164.148697 720.064636,140.958237 748.358826,130.547150 
	C778.925049,119.300034 808.883484,121.668045 834.688293,143.847565 
	C849.968567,156.981155 856.327942,174.934769 856.833679,194.594162 
	C857.476257,219.573685 857.087341,244.580704 857.079163,269.575836 
	C857.059814,328.900452 856.997498,388.225098 856.964722,447.549713 
	C856.957764,460.140656 855.616394,472.507050 850.628296,484.217224 
	C842.898010,502.365448 829.892334,515.340759 811.104675,521.345886 
	C786.516602,529.205017 762.049011,528.836426 739.123840,515.626221 
	C732.608826,511.872101 726.939575,506.373810 721.536560,501.015778 
	C701.188354,480.836884 681.099365,460.396393 660.955139,440.012451 
	C659.676270,438.718353 658.753784,437.072052 657.389771,435.214081 
	C655.114563,437.340363 653.671631,438.616028 652.309448,439.972717 
	C632.827881,459.376068 612.650513,478.141876 594.077637,498.379852 
	C574.510803,519.700928 550.699890,527.813049 522.738770,525.826904 
	C500.117554,524.219971 481.112671,515.289490 468.411865,495.823792 
	C464.102020,489.218414 461.314819,481.619598 457.715729,474.236572 
	C457.839294,474.168976 457.162933,474.333130 456.807465,474.762817 
	C434.889496,501.254913 405.902588,515.248230 372.729279,520.672729 
	C355.542603,523.483154 337.980835,524.888123 320.558502,525.188782 
	C281.242035,525.867371 241.906845,525.521973 202.579391,525.475952 
	C183.957596,525.454224 166.055664,522.618286 150.590530,511.048370 
	C134.728516,499.181641 126.423599,483.117096 123.975365,463.705109 
	C122.266815,450.158051 122.771950,436.729797 126.813316,423.667511 
	C133.812836,401.044098 148.695862,386.040222 171.739441,378.774139 
M562.546082,507.172394 
	C568.302795,502.963470 574.671936,499.379395 579.712219,494.439514 
	C603.990845,470.644531 627.977600,446.549591 651.885742,422.380951 
	C655.372864,418.855896 657.414917,418.583282 661.054504,422.272491 
	C685.515076,447.066681 710.113403,471.727539 734.916565,496.178497 
	C739.113159,500.315552 744.236938,503.730042 749.414856,506.611206 
	C762.840881,514.081787 777.725037,514.325256 792.312012,512.693970 
	C812.527832,510.433105 828.438721,500.746826 837.679138,481.768250 
	C842.540100,471.784698 843.996460,461.150482 844.006348,450.232361 
	C844.050232,401.737213 844.063354,353.242065 844.063660,304.746918 
	C844.063904,268.084106 844.521912,231.411896 843.825256,194.761932 
	C843.398743,172.322220 833.366394,154.550354 812.594910,144.479660 
	C799.578430,138.168823 785.461243,136.837753 771.101013,138.459213 
	C758.040344,139.933914 746.100708,144.103928 736.329468,153.249283 
	C723.767273,165.006912 718.407654,180.091110 718.145630,196.754242 
	C717.663574,227.410492 717.970276,258.079132 717.948486,288.742615 
	C717.947266,290.481934 717.948303,292.221252 717.948303,293.960602 
	C717.362488,294.315491 716.776733,294.670410 716.190918,295.025330 
	C714.568665,292.973663 713.171936,290.680847 711.282959,288.914368 
	C704.976257,283.016602 699.098999,276.384613 691.963013,271.700989 
	C671.443604,258.233276 628.147217,258.310974 608.467651,281.869049 
	C604.700928,286.378113 600.178955,290.256256 594.897156,295.532562 
	C594.897156,292.108978 594.911072,290.342957 594.895142,288.577240 
	C594.605164,256.433807 594.763062,224.277390 593.834412,192.152374 
	C593.346924,175.288483 586.389221,160.713547 572.310730,150.592331 
	C555.183289,138.279205 535.805664,136.414917 515.570801,139.593033 
	C498.729462,142.238190 485.773071,150.946442 477.178467,165.536682 
	C473.867523,171.157364 472.060455,177.663956 469.452911,184.049072 
	C468.395569,180.792572 467.486664,177.659317 466.365662,174.603882 
	C463.097443,165.695786 458.154419,157.967255 450.780182,151.789871 
	C439.380798,142.240646 425.993378,138.152313 411.506439,138.081757 
	C365.012451,137.855301 318.514832,137.768448 272.022369,138.123749 
	C250.100540,138.291290 228.594040,141.854904 208.020874,149.845154 
	C172.816116,163.518051 149.761734,188.238312 140.552628,225.123459 
	C135.204132,246.545776 134.803650,268.307495 138.356918,290.040253 
	C142.334320,314.367004 152.217010,335.869324 170.527374,352.909485 
	C185.759552,367.085022 203.886185,376.031921 223.938736,380.885498 
	C235.934479,383.789001 248.194412,385.601074 260.747955,387.981934 
	C255.406738,387.981934 250.422882,387.919067 245.441055,387.992981 
	C225.799469,388.284393 206.085968,387.680908 186.537155,389.193176 
	C165.766052,390.799957 150.064651,401.532562 141.928253,421.253479 
	C133.888824,440.739441 134.003738,460.583221 142.094131,480.074982 
	C147.525894,493.161438 157.130753,502.824371 170.564789,507.109802 
	C180.411026,510.250732 190.993942,512.558777 201.266891,512.631104 
	C246.739960,512.951294 292.221436,512.486938 337.696167,511.976227 
	C358.142731,511.746643 378.113098,508.083282 397.333740,500.988098 
	C428.662109,489.423370 451.528015,468.964111 463.306427,437.169556 
	C465.212402,432.024628 466.592072,426.684723 468.215088,421.434937 
	C468.924622,426.775726 468.809845,431.937653 468.949677,437.092682 
	C469.202179,446.401459 468.917206,455.793457 470.082520,464.995422 
	C473.083496,488.692200 488.562042,505.701263 511.859009,511.086090 
	C528.788879,514.999268 545.584106,514.162048 562.546082,507.172394 
z"/>
<path fill="#FAF800" opacity="1.000000" stroke="none" 
	d="
M562.199829,507.327271 
	C545.584106,514.162048 528.788879,514.999268 511.859009,511.086090 
	C488.562042,505.701263 473.083496,488.692200 470.082520,464.995422 
	C468.917206,455.793457 469.202179,446.401459 468.949677,437.092682 
	C468.809845,431.937653 468.924622,426.775726 468.215088,421.434937 
	C466.592072,426.684723 465.212402,432.024628 463.306427,437.169556 
	C451.528015,468.964111 428.662109,489.423370 397.333740,500.988098 
	C378.113098,508.083282 358.142731,511.746643 337.696167,511.976227 
	C292.221436,512.486938 246.739960,512.951294 201.266891,512.631104 
	C190.993942,512.558777 180.411026,510.250732 170.564789,507.109802 
	C157.130753,502.824371 147.525894,493.161438 142.094131,480.074982 
	C134.003738,460.583221 133.888824,440.739441 141.928253,421.253479 
	C150.064651,401.532562 165.766052,390.799957 186.537155,389.193176 
	C206.085968,387.680908 225.799469,388.284393 245.441055,387.992981 
	C250.422882,387.919067 255.406738,387.981934 260.747955,387.981934 
	C248.194412,385.601074 235.934479,383.789001 223.938736,380.885498 
	C203.886185,376.031921 185.759552,367.085022 170.527374,352.909485 
	C152.217010,335.869324 142.334320,314.367004 138.356918,290.040253 
	C134.803650,268.307495 135.204132,246.545776 140.552628,225.123459 
	C149.761734,188.238312 172.816116,163.518051 208.020874,149.845154 
	C228.594040,141.854904 250.100540,138.291290 272.022369,138.123749 
	C318.514832,137.768448 365.012451,137.855301 411.506439,138.081757 
	C425.993378,138.152313 439.380798,142.240646 450.780182,151.789871 
	C458.154419,157.967255 463.097443,165.695786 466.365662,174.603882 
	C467.486664,177.659317 468.395569,180.792572 469.452911,184.049072 
	C472.060455,177.663956 473.867523,171.157364 477.178467,165.536682 
	C485.773071,150.946442 498.729462,142.238190 515.570801,139.593033 
	C535.805664,136.414917 555.183289,138.279205 572.310730,150.592331 
	C586.389221,160.713547 593.346924,175.288483 593.834412,192.152374 
	C594.763062,224.277390 594.605164,256.433807 594.895142,288.577240 
	C594.911072,290.342957 594.897156,292.108978 594.897156,295.532562 
	C600.178955,290.256256 604.700928,286.378113 608.467651,281.869049 
	C628.147217,258.310974 671.443604,258.233276 691.963013,271.700989 
	C699.098999,276.384613 704.976257,283.016602 711.282959,288.914368 
	C713.171936,290.680847 714.568665,292.973663 716.190918,295.025330 
	C716.776733,294.670410 717.362488,294.315491 717.948303,293.960602 
	C717.948303,292.221252 717.947266,290.481934 717.948486,288.742615 
	C717.970276,258.079132 717.663574,227.410492 718.145630,196.754242 
	C718.407654,180.091110 723.767273,165.006912 736.329468,153.249283 
	C746.100708,144.103928 758.040344,139.933914 771.101013,138.459213 
	C785.461243,136.837753 799.578430,138.168823 812.594910,144.479660 
	C833.366394,154.550354 843.398743,172.322220 843.825256,194.761932 
	C844.521912,231.411896 844.063904,268.084106 844.063660,304.746918 
	C844.063354,353.242065 844.050232,401.737213 844.006348,450.232361 
	C843.996460,461.150482 842.540100,471.784698 837.679138,481.768250 
	C828.438721,500.746826 812.527832,510.433105 792.312012,512.693970 
	C777.725037,514.325256 762.840881,514.081787 749.414856,506.611206 
	C744.236938,503.730042 739.113159,500.315552 734.916565,496.178497 
	C710.113403,471.727539 685.515076,447.066681 661.054504,422.272491 
	C657.414917,418.583282 655.372864,418.855896 651.885742,422.380951 
	C627.977600,446.549591 603.990845,470.644531 579.712219,494.439514 
	C574.671936,499.379395 568.302795,502.963470 562.199829,507.327271 
M186.936783,500.801178 
	C191.083069,501.168762 195.229050,501.851471 199.375687,501.855408 
	C243.201645,501.896820 287.029297,502.039276 330.853088,501.704102 
	C352.448120,501.538971 373.710510,498.485443 394.088562,490.861206 
	C425.475952,479.117981 446.945129,457.804565 455.789520,425.100281 
	C462.447357,400.481262 462.117584,375.560333 455.654083,350.939178 
	C447.913727,321.454102 429.863983,300.334717 402.241028,287.345703 
	C385.735809,279.584503 368.237976,275.178558 350.233521,274.079742 
	C328.472290,272.751678 306.603668,273.285461 284.803192,272.448669 
	C275.556244,272.093719 266.303772,270.628754 257.189697,268.936401 
	C254.880737,268.507690 251.505066,265.282074 251.495117,263.326996 
	C251.484360,261.215363 254.551987,258.666595 256.820831,257.092896 
	C258.774170,255.738022 261.449402,255.083710 263.880981,254.822418 
	C271.154480,254.040802 278.462280,253.157013 285.761597,253.112259 
	C312.922699,252.945770 340.085754,253.111450 367.248077,253.127930 
	C382.578552,253.137222 397.916473,253.396378 413.237793,253.012970 
	C437.137177,252.414902 453.537048,239.136520 458.390167,216.751373 
	C460.751007,205.861923 460.679474,194.850952 458.011200,184.026230 
	C453.416809,165.387634 441.553101,153.949249 422.748566,150.108505 
	C417.405212,149.017120 411.841431,148.590576 406.376587,148.574356 
	C365.383453,148.452545 324.389740,148.460052 283.396362,148.531998 
	C262.664337,148.568375 242.113464,150.274628 222.129715,156.291016 
	C187.624710,166.679199 162.795792,187.401657 152.283646,222.822479 
	C145.970642,244.094131 145.473083,265.876007 148.925766,287.697327 
	C154.659271,323.933472 174.049149,349.771698 208.081482,364.185364 
	C229.762756,373.367981 252.628220,376.488190 275.927795,376.945038 
	C293.752289,377.294556 311.593719,376.901031 329.411469,377.406982 
	C335.987122,377.593689 342.651367,378.930237 348.998932,380.721375 
	C351.445892,381.411835 354.128998,384.511902 354.918915,387.066284 
	C356.100769,390.888275 352.637878,392.882050 349.514038,394.351990 
	C348.318024,394.914795 347.044434,395.505554 345.757416,395.650696 
	C337.511017,396.580475 329.258087,398.039948 320.994415,398.128906 
	C280.337341,398.566528 239.676224,398.635895 199.016464,398.820679 
	C189.775696,398.862671 180.686600,399.799713 172.235779,403.859497 
	C155.744370,411.782043 148.924026,425.970032 147.388962,443.268616 
	C144.740021,473.119415 156.459549,495.534882 186.936783,500.801178 
M681.753662,427.743958 
	C700.566956,446.636200 719.783630,465.148376 738.059387,484.547028 
	C751.456970,498.767761 767.548950,503.790131 786.297424,502.479309 
	C806.233398,501.085449 822.449585,493.372986 829.368591,473.379791 
	C832.186890,465.236176 833.145630,456.094604 833.185242,447.399017 
	C833.553040,366.579803 833.546204,285.758820 833.602539,204.938354 
	C833.605652,200.446533 833.399231,195.935577 832.962280,191.465607 
	C830.815613,169.503204 816.899841,153.939178 795.220337,150.159225 
	C787.756958,148.857925 779.921570,148.498535 772.370605,149.113953 
	C749.244751,150.998764 733.976746,165.173615 729.935120,187.982285 
	C728.953125,193.523956 728.600952,199.241043 728.583130,204.879440 
	C728.467224,241.539932 728.523438,278.200989 728.523376,314.861847 
	C728.523376,316.697205 728.523376,318.532532 728.523376,320.367889 
	C718.039673,309.066986 706.289429,299.997009 696.807800,288.975403 
	C679.669617,269.053864 635.084534,267.989105 616.945374,288.302368 
	C607.970276,298.353210 597.967224,307.486816 588.411560,317.017700 
	C587.237366,318.188873 585.953613,319.250305 583.922913,321.082153 
	C583.922913,317.751160 583.923950,315.775177 583.922791,313.799194 
	C583.900574,275.472229 584.130737,237.142807 583.762939,198.819138 
	C583.533752,174.945358 572.429871,158.580444 552.889160,152.330505 
	C540.972351,148.519028 528.704163,147.723953 516.361206,150.328674 
	C496.534149,154.512726 484.376190,166.815079 480.874390,186.744553 
	C479.843353,192.612320 479.499329,198.668121 479.492920,204.638443 
	C479.406128,285.458862 479.424469,366.279419 479.461090,447.099915 
	C479.463135,451.592041 479.577728,456.116943 480.111755,460.569977 
	C481.840485,474.985779 487.736359,487.067902 500.429535,495.041351 
	C518.071899,506.123688 554.357910,505.699371 572.065918,487.191132 
	C598.208191,459.867432 625.455994,433.602051 652.170288,406.823364 
	C653.547241,405.443115 654.334229,403.474213 655.451111,401.691254 
	C664.945312,411.092712 673.100464,419.168274 681.753662,427.743958 
M423.316193,287.160461 
	C447.684875,303.728973 461.748810,327.168671 468.586670,355.310944 
	C468.586670,311.603088 468.586670,267.895203 468.586670,223.057617 
	C467.670776,224.535141 467.240875,224.999283 467.064972,225.545242 
	C458.657501,251.640427 436.672241,263.525818 411.062592,263.904022 
	C397.732666,264.100891 384.397614,263.951477 371.064880,263.959473 
	C369.564972,263.960388 368.063873,263.932495 366.565491,263.982391 
	C365.286011,264.024994 364.009644,264.160278 362.731903,264.254547 
	C384.173462,268.181030 404.556305,274.457581 423.316193,287.160461 
z"/>
<path fill="#070703" opacity="1.000000" stroke="none" 
	d="
M186.513123,500.722290 
	C156.459549,495.534882 144.740021,473.119415 147.388962,443.268616 
	C148.924026,425.970032 155.744370,411.782043 172.235779,403.859497 
	C180.686600,399.799713 189.775696,398.862671 199.016464,398.820679 
	C239.676224,398.635895 280.337341,398.566528 320.994415,398.128906 
	C329.258087,398.039948 337.511017,396.580475 345.757416,395.650696 
	C347.044434,395.505554 348.318024,394.914795 349.514038,394.351990 
	C352.637878,392.882050 356.100769,390.888275 354.918915,387.066284 
	C354.128998,384.511902 351.445892,381.411835 348.998932,380.721375 
	C342.651367,378.930237 335.987122,377.593689 329.411469,377.406982 
	C311.593719,376.901031 293.752289,377.294556 275.927795,376.945038 
	C252.628220,376.488190 229.762756,373.367981 208.081482,364.185364 
	C174.049149,349.771698 154.659271,323.933472 148.925766,287.697327 
	C145.473083,265.876007 145.970642,244.094131 152.283646,222.822479 
	C162.795792,187.401657 187.624710,166.679199 222.129715,156.291016 
	C242.113464,150.274628 262.664337,148.568375 283.396362,148.531998 
	C324.389740,148.460052 365.383453,148.452545 406.376587,148.574356 
	C411.841431,148.590576 417.405212,149.017120 422.748566,150.108505 
	C441.553101,153.949249 453.416809,165.387634 458.011200,184.026230 
	C460.679474,194.850952 460.751007,205.861923 458.390167,216.751373 
	C453.537048,239.136520 437.137177,252.414902 413.237793,253.012970 
	C397.916473,253.396378 382.578552,253.137222 367.248077,253.127930 
	C340.085754,253.111450 312.922699,252.945770 285.761597,253.112259 
	C278.462280,253.157013 271.154480,254.040802 263.880981,254.822418 
	C261.449402,255.083710 258.774170,255.738022 256.820831,257.092896 
	C254.551987,258.666595 251.484360,261.215363 251.495117,263.326996 
	C251.505066,265.282074 254.880737,268.507690 257.189697,268.936401 
	C266.303772,270.628754 275.556244,272.093719 284.803192,272.448669 
	C306.603668,273.285461 328.472290,272.751678 350.233521,274.079742 
	C368.237976,275.178558 385.735809,279.584503 402.241028,287.345703 
	C429.863983,300.334717 447.913727,321.454102 455.654083,350.939178 
	C462.117584,375.560333 462.447357,400.481262 455.789520,425.100281 
	C446.945129,457.804565 425.475952,479.117981 394.088562,490.861206 
	C373.710510,498.485443 352.448120,501.538971 330.853088,501.704102 
	C287.029297,502.039276 243.201645,501.896820 199.375687,501.855408 
	C195.229050,501.851471 191.083069,501.168762 186.513123,500.722290 
M449.647461,391.444733 
	C449.518982,389.292267 449.390503,387.139771 449.473724,384.097473 
	C449.260193,381.065277 449.046661,378.033051 448.941559,374.193420 
	C448.399841,370.768066 447.858154,367.342712 447.344452,363.095825 
	C446.568542,360.062195 445.792664,357.028534 445.043823,353.225769 
	C443.780396,349.654053 442.516998,346.082336 440.838623,341.971802 
	C440.132782,340.316345 439.426971,338.660889 438.670868,336.416870 
	C438.156158,335.596436 437.641418,334.776001 437.096069,333.360626 
	C436.750214,332.901855 436.404388,332.443085 435.836823,331.343353 
	C434.598389,329.489716 433.359955,327.636078 431.988525,325.122681 
	C429.700562,322.675293 427.412567,320.227875 424.871735,317.164673 
	C421.691742,314.037354 418.775665,310.573090 415.286713,307.840179 
	C398.949066,295.043121 379.902039,288.395599 359.647430,286.171051 
	C341.319916,284.158142 322.784637,283.976929 304.332794,283.176727 
	C291.528900,282.621460 278.659698,282.943787 265.921509,281.769501 
	C259.665131,281.192719 253.090103,279.067657 247.631546,275.944122 
	C238.023590,270.446259 237.621338,258.156372 246.256454,251.135315 
	C248.904785,248.982010 252.143829,246.826385 255.386963,246.268784 
	C265.509430,244.528412 275.754150,242.549316 285.967743,242.456772 
	C325.448639,242.098999 364.935791,242.453674 404.420715,242.493317 
	C408.747070,242.497665 413.089630,242.362106 417.397430,241.982300 
	C432.839417,240.620773 443.777802,231.314758 447.522827,216.331421 
	C449.988861,206.465042 450.001129,196.503540 447.662140,186.626221 
	C444.303375,172.442657 435.519043,163.548508 421.100433,160.747711 
	C416.224457,159.800537 411.199860,159.182526 406.240875,159.167664 
	C365.256897,159.044785 324.272308,159.054306 283.288055,159.117661 
	C261.519135,159.151321 240.027740,161.348969 219.310760,168.523880 
	C192.242523,177.898422 172.625092,195.083038 163.593918,222.880981 
	C156.376877,245.094955 156.216980,267.778015 160.406052,290.541748 
	C162.338913,301.045105 165.553467,311.190155 171.945358,320.767944 
	C173.769394,323.240021 175.593414,325.712067 177.676773,328.820770 
	C179.153656,330.445801 180.630539,332.070831 182.288391,334.153168 
	C182.680527,334.441833 183.072678,334.730499 183.787537,335.631348 
	C185.166611,336.804230 186.545670,337.977112 188.222061,339.755157 
	C190.987610,341.758484 193.753174,343.761841 196.975143,346.246002 
	C203.948929,349.586884 210.922729,352.927765 218.460861,356.712708 
	C235.356445,362.782104 252.901199,365.509308 270.734039,366.022675 
	C293.807953,366.686951 316.898621,366.771179 340.655884,367.477478 
	C348.334839,368.839447 355.801331,370.728027 362.125488,376.693176 
	C363.469543,379.462494 364.813629,382.231812 366.024231,385.856018 
	C365.874603,387.860138 365.724976,389.864288 365.115479,392.346588 
	C364.375397,394.167114 363.635315,395.987610 362.324554,398.174835 
	C357.881134,400.828613 353.437683,403.482391 348.228516,406.110107 
	C346.383972,406.731171 344.568207,407.770081 342.689819,407.899506 
	C335.313904,408.407654 327.919922,408.867279 320.529724,408.917633 
	C280.311310,409.191711 240.090134,409.183777 199.874847,409.676636 
	C192.892395,409.762177 185.933609,411.778900 178.246429,412.934906 
	C175.652756,414.544006 173.059067,416.153107 169.865707,417.979736 
	C169.179565,418.961487 168.493423,419.943268 167.142624,420.925354 
	C166.395432,421.880127 165.648239,422.834930 164.335678,424.209412 
	C163.114929,426.762817 161.894196,429.316223 160.114197,432.397095 
	C159.469833,441.148560 157.862869,449.958282 158.388275,458.638947 
	C159.378418,474.998230 168.085724,485.074341 183.901321,489.141937 
	C189.624207,490.613800 195.743240,491.059448 201.685043,491.083130 
	C241.990280,491.243652 282.296448,491.166931 322.602325,491.164856 
	C342.841736,491.163818 362.865845,489.373901 382.343170,483.521759 
	C404.738953,476.792755 423.639801,465.112335 436.032288,444.600677 
	C438.220703,440.978455 439.765259,436.967163 442.003937,432.625519 
	C442.549438,430.987488 443.094910,429.349457 444.034912,427.093933 
	C444.459625,425.422485 444.884338,423.751007 445.716003,421.565521 
	C445.835297,420.709595 445.954590,419.853668 446.478943,418.428467 
	C446.625275,417.286835 446.771576,416.145203 447.299164,414.315674 
	C447.579590,412.210236 447.860016,410.104767 448.526672,407.294708 
	C448.694427,404.529999 448.862183,401.765320 449.306213,398.173523 
	C449.334381,396.156219 449.362549,394.138885 449.647461,391.444733 
z"/>
<path fill="#080903" opacity="1.000000" stroke="none" 
	d="
M681.504639,427.493896 
	C673.100464,419.168274 664.945312,411.092712 655.451111,401.691254 
	C654.334229,403.474213 653.547241,405.443115 652.170288,406.823364 
	C625.455994,433.602051 598.208191,459.867432 572.065918,487.191132 
	C554.357910,505.699371 518.071899,506.123688 500.429535,495.041351 
	C487.736359,487.067902 481.840485,474.985779 480.111755,460.569977 
	C479.577728,456.116943 479.463135,451.592041 479.461090,447.099915 
	C479.424469,366.279419 479.406128,285.458862 479.492920,204.638443 
	C479.499329,198.668121 479.843353,192.612320 480.874390,186.744553 
	C484.376190,166.815079 496.534149,154.512726 516.361206,150.328674 
	C528.704163,147.723953 540.972351,148.519028 552.889160,152.330505 
	C572.429871,158.580444 583.533752,174.945358 583.762939,198.819138 
	C584.130737,237.142807 583.900574,275.472229 583.922791,313.799194 
	C583.923950,315.775177 583.922913,317.751160 583.922913,321.082153 
	C585.953613,319.250305 587.237366,318.188873 588.411560,317.017700 
	C597.967224,307.486816 607.970276,298.353210 616.945374,288.302368 
	C635.084534,267.989105 679.669617,269.053864 696.807800,288.975403 
	C706.289429,299.997009 718.039673,309.066986 728.523376,320.367889 
	C728.523376,318.532532 728.523376,316.697205 728.523376,314.861847 
	C728.523438,278.200989 728.467224,241.539932 728.583130,204.879440 
	C728.600952,199.241043 728.953125,193.523956 729.935120,187.982285 
	C733.976746,165.173615 749.244751,150.998764 772.370605,149.113953 
	C779.921570,148.498535 787.756958,148.857925 795.220337,150.159225 
	C816.899841,153.939178 830.815613,169.503204 832.962280,191.465607 
	C833.399231,195.935577 833.605652,200.446533 833.602539,204.938354 
	C833.546204,285.758820 833.553040,366.579803 833.185242,447.399017 
	C833.145630,456.094604 832.186890,465.236176 829.368591,473.379791 
	C822.449585,493.372986 806.233398,501.085449 786.297424,502.479309 
	C767.548950,503.790131 751.456970,498.767761 738.059387,484.547028 
	C719.783630,465.148376 700.566956,446.636200 681.504639,427.493896 
M822.745544,393.337799 
	C822.679260,392.889832 822.612976,392.441895 822.761353,391.211182 
	C822.690613,390.139038 822.619873,389.066864 822.764648,387.180420 
	C822.695374,385.785858 822.626099,384.391327 822.771484,382.129578 
	C822.701355,379.752319 822.631287,377.375061 822.773804,374.111176 
	C822.705811,371.073761 822.637817,368.036316 822.781433,364.104187 
	C822.714722,360.734314 822.647949,357.364441 822.789368,353.094940 
	C822.730652,349.401886 822.671936,345.708832 822.824890,341.112335 
	C822.762024,337.405792 822.699158,333.699249 822.830383,329.093781 
	C822.761841,325.723450 822.693298,322.353119 822.820740,318.066650 
	C822.859558,278.926575 822.935669,239.786469 822.882385,200.646515 
	C822.876709,196.509766 822.434692,192.310379 821.636841,188.249771 
	C819.174255,175.717422 812.215759,166.655533 799.985291,162.329849 
	C787.299133,157.843002 774.430542,157.961838 761.760864,162.380295 
	C752.039856,165.770386 745.154236,172.604050 742.415771,182.472183 
	C740.482971,189.436966 739.400940,196.849747 739.317139,204.078506 
	C738.979187,233.221802 739.155823,262.371338 739.188232,291.518494 
	C739.198425,300.671387 739.352600,309.824158 739.215637,319.871887 
	C739.284119,323.245239 739.352600,326.618622 739.206482,330.892517 
	C739.282715,334.600616 739.358948,338.308716 739.238953,342.775787 
	C739.074768,344.079285 738.910522,345.382782 738.667786,347.309906 
	C735.878662,344.750275 733.725464,342.774231 731.128601,340.245026 
	C727.669739,336.747345 724.210876,333.249664 720.430847,329.104706 
	C717.037415,325.703552 713.643982,322.302429 709.981628,318.273407 
	C702.919250,310.999786 695.335876,304.156158 688.904541,296.361877 
	C676.037292,280.767761 642.788757,280.659698 629.960388,291.449829 
	C619.972290,299.851044 611.251892,309.759491 601.353210,319.250427 
	C597.980469,322.747803 594.607666,326.245209 590.661682,329.984253 
	C587.436096,333.325165 584.210510,336.666077 580.369019,340.267853 
	C578.312866,342.240570 576.256714,344.213257 573.721680,346.645416 
	C573.367920,344.495880 573.163025,343.250732 573.165894,341.102783 
	C573.103516,337.403992 573.041077,333.705170 573.190857,329.116547 
	C573.118469,326.077362 573.046082,323.038177 573.171692,319.079651 
	C573.185059,279.630066 573.206543,240.180511 573.192261,200.730942 
	C573.191345,198.239746 573.050659,195.730927 572.737488,193.260391 
	C570.740479,177.504578 563.344177,166.045929 547.207947,161.778610 
	C536.720215,159.005081 526.097778,158.712769 515.595215,161.413406 
	C503.075378,164.632782 494.907318,172.686172 492.049805,185.336349 
	C490.743195,191.120544 490.258331,197.195236 490.220734,203.143372 
	C490.039673,231.772583 490.116150,260.403595 490.149231,289.033905 
	C490.161133,299.347198 490.307159,309.660339 490.171478,320.863831 
	C490.243927,323.914398 490.316376,326.964966 490.189728,330.915802 
	C490.261475,334.613525 490.333221,338.311218 490.197327,342.908844 
	C490.268127,346.604645 490.338959,350.300476 490.203674,354.893738 
	C490.272491,358.261932 490.341339,361.630127 490.205933,365.888580 
	C490.272705,368.925720 490.339478,371.962860 490.202026,375.870605 
	C490.270142,378.246582 490.338257,380.622589 490.202087,383.839905 
	C490.270905,385.562042 490.339752,387.284180 490.202057,389.845825 
	C490.268219,391.567017 490.334381,393.288177 490.193085,395.849548 
	C490.262085,397.572296 490.331085,399.295013 490.197357,401.898102 
	C490.267365,404.604187 490.337341,407.310242 490.204132,410.904388 
	C490.271301,413.942078 490.338470,416.979736 490.198517,420.915344 
	C490.267334,424.311676 490.336151,427.708038 490.197571,432.007019 
	C490.370575,441.141846 489.951294,450.334717 490.840271,459.399353 
	C492.670044,478.057251 503.462341,489.090179 522.089050,491.284302 
	C536.941467,493.033783 551.546692,492.240295 563.069641,480.756897 
	C579.171021,464.710785 595.100159,448.491852 611.662109,432.154388 
	C615.238708,428.477539 618.815308,424.800720 622.982727,420.873444 
	C625.712341,418.044434 628.442017,415.215454 631.796143,412.102173 
	C634.588135,409.215057 637.380127,406.327972 640.791260,403.132904 
	C643.025879,400.808044 645.260498,398.483185 648.057617,395.879181 
	C649.204041,394.643127 650.350525,393.407074 651.957275,391.993286 
	C652.367188,391.492371 652.777039,390.991486 653.800720,390.179596 
	C655.859070,387.211975 657.876648,388.368530 660.120422,390.813477 
	C661.032471,391.640961 661.944580,392.468445 663.026917,393.808960 
	C663.714111,394.364807 664.401245,394.920654 665.330322,396.016235 
	C665.788635,396.376801 666.246887,396.737366 666.954285,397.726318 
	C668.590637,399.241394 670.226929,400.756470 672.145569,402.862000 
	C674.726929,405.327545 677.308350,407.793060 680.156372,410.855103 
	C682.723755,413.348358 685.291077,415.841644 688.120239,418.929382 
	C690.708191,421.376648 693.296082,423.823944 696.137451,426.868317 
	C698.322205,428.944122 700.506897,431.019897 702.974304,433.723145 
	C717.062805,447.907074 731.633057,461.651794 745.089233,476.412231 
	C756.093506,488.483124 769.251282,492.678345 784.924500,491.862091 
	C807.830322,490.669128 820.284546,479.291992 822.356384,456.464691 
	C823.090332,448.378448 822.501770,440.172119 822.748047,431.153442 
	C822.672729,428.768768 822.597412,426.384094 822.750549,423.135162 
	C822.676575,420.756927 822.602600,418.378693 822.754150,415.136017 
	C822.683167,412.758759 822.612183,410.381500 822.766052,407.134186 
	C822.691711,404.457886 822.617371,401.781616 822.744995,398.385040 
	C822.677551,397.895660 822.610046,397.406281 822.755188,396.201355 
	C822.684387,395.465546 822.613586,394.729706 822.745544,393.337799 
z"/>
<path fill="#FDA400" opacity="1.000000" stroke="none" 
	d="
M423.013489,286.966644 
	C404.556305,274.457581 384.173462,268.181030 362.731903,264.254547 
	C364.009644,264.160278 365.286011,264.024994 366.565491,263.982391 
	C368.063873,263.932495 369.564972,263.960388 371.064880,263.959473 
	C384.397614,263.951477 397.732666,264.100891 411.062592,263.904022 
	C436.672241,263.525818 458.657501,251.640427 467.064972,225.545242 
	C467.240875,224.999283 467.670776,224.535141 468.586670,223.057617 
	C468.586670,267.895203 468.586670,311.603088 468.586670,355.310944 
	C461.748810,327.168671 447.684875,303.728973 423.013489,286.966644 
M430.975494,274.124115 
	C428.060669,275.011444 429.670532,275.964630 430.929596,276.926849 
	C434.362946,279.550720 438.029785,281.926666 441.166656,284.867462 
	C445.950134,289.351929 450.365784,294.228760 455.678436,299.702209 
	C455.678436,286.758820 455.678436,275.174042 455.678436,264.255219 
	C447.591034,267.531494 439.640594,270.752289 430.975494,274.124115 
z"/>
<path fill="#20D8B6" opacity="1.000000" stroke="none" 
	d="
M171.800430,320.096191 
	C165.553467,311.190155 162.338913,301.045105 160.406052,290.541748 
	C156.216980,267.778015 156.376877,245.094955 163.593918,222.880981 
	C172.625092,195.083038 192.242523,177.898422 219.310760,168.523880 
	C240.027740,161.348969 261.519135,159.151321 283.288055,159.117661 
	C324.272308,159.054306 365.256897,159.044785 406.240875,159.167664 
	C411.199860,159.182526 416.224457,159.800537 421.100433,160.747711 
	C435.519043,163.548508 444.303375,172.442657 447.662140,186.626221 
	C450.001129,196.503540 449.988861,206.465042 447.522827,216.331421 
	C443.777802,231.314758 432.839417,240.620773 417.397430,241.982300 
	C413.089630,242.362106 408.747070,242.497665 404.420715,242.493317 
	C364.935791,242.453674 325.448639,242.098999 285.967743,242.456772 
	C275.754150,242.549316 265.509430,244.528412 255.386963,246.268784 
	C252.143829,246.826385 248.904785,248.982010 246.256454,251.135315 
	C237.621338,258.156372 238.023590,270.446259 247.631546,275.944122 
	C253.090103,279.067657 259.665131,281.192719 265.921509,281.769501 
	C278.659698,282.943787 291.528900,282.621460 304.332794,283.176727 
	C322.784637,283.976929 341.319916,284.158142 359.647430,286.171051 
	C379.902039,288.395599 398.949066,295.043121 415.286713,307.840179 
	C418.775665,310.573090 421.691742,314.037354 424.674622,317.752502 
	C422.184082,318.560608 419.890717,318.972534 417.597168,318.973511 
	C338.271484,319.006775 258.945831,318.990814 179.620193,319.047302 
	C177.013351,319.049164 174.407013,319.731201 171.800430,320.096191 
z"/>
<path fill="#FE51AF" opacity="1.000000" stroke="none" 
	d="
M441.607117,433.135559 
	C439.765259,436.967163 438.220703,440.978455 436.032288,444.600677 
	C423.639801,465.112335 404.738953,476.792755 382.343170,483.521759 
	C362.865845,489.373901 342.841736,491.163818 322.602325,491.164856 
	C282.296448,491.166931 241.990280,491.243652 201.685043,491.083130 
	C195.743240,491.059448 189.624207,490.613800 183.901321,489.141937 
	C168.085724,485.074341 159.378418,474.998230 158.388275,458.638947 
	C157.862869,449.958282 159.469833,441.148560 160.824707,432.226654 
	C164.326981,432.370392 167.118561,432.957489 169.910477,432.959076 
	C255.482498,433.007660 341.054535,432.996490 426.626556,433.004639 
	C431.620087,433.005127 436.613586,433.089966 441.607117,433.135559 
z"/>
<path fill="#70A4B1" opacity="1.000000" stroke="none" 
	d="
M445.016754,353.994904 
	C445.792664,357.028534 446.568542,360.062195 446.896912,363.587158 
	C443.829468,364.385162 441.210052,364.953369 438.589508,364.958649 
	C407.705353,365.020813 376.820892,364.959869 345.937134,365.089142 
	C343.949341,365.097443 341.966949,366.403046 339.982056,367.105164 
	C316.898621,366.771179 293.807953,366.686951 270.734039,366.022675 
	C252.901199,365.509308 235.356445,362.782104 218.319534,356.102020 
	C220.324265,354.994629 222.469849,354.066010 224.616425,354.063751 
	C298.083160,353.986511 371.549957,353.997009 445.016754,353.994904 
z"/>
<path fill="#5EB3B5" opacity="1.000000" stroke="none" 
	d="
M445.030273,353.610352 
	C371.549957,353.997009 298.083160,353.986511 224.616425,354.063751 
	C222.469849,354.066010 220.324265,354.994629 218.037369,355.880005 
	C210.922729,352.927765 203.948929,349.586884 197.067322,345.656128 
	C199.573273,344.710815 201.986832,344.046539 204.400848,344.044800 
	C281.004059,343.990265 357.607330,344.013214 434.210510,343.937408 
	C436.558655,343.935089 438.905914,343.007080 441.253571,342.510620 
	C442.516998,346.082336 443.780396,349.654053 445.030273,353.610352 
z"/>
<path fill="#32CEB6" opacity="1.000000" stroke="none" 
	d="
M171.872894,320.432068 
	C174.407013,319.731201 177.013351,319.049164 179.620193,319.047302 
	C258.945831,318.990814 338.271484,319.006775 417.597168,318.973511 
	C419.890717,318.972534 422.184082,318.560608 424.801086,318.060425 
	C427.412567,320.227875 429.700562,322.675293 431.830048,325.792847 
	C429.332367,326.974915 426.993622,327.932037 424.653931,327.934296 
	C344.903839,328.011810 265.153687,327.996979 185.403549,328.006561 
	C182.741516,328.006897 180.079468,328.122345 177.417435,328.184143 
	C175.593414,325.712067 173.769394,323.240021 171.872894,320.432068 
z"/>
<path fill="#EE5BB0" opacity="1.000000" stroke="none" 
	d="
M441.805542,432.880554 
	C436.613586,433.089966 431.620087,433.005127 426.626556,433.004639 
	C341.054535,432.996490 255.482498,433.007660 169.910477,432.959076 
	C167.118561,432.957489 164.326981,432.370392 161.104340,431.962891 
	C161.894196,429.316223 163.114929,426.762817 164.895172,424.280029 
	C168.517731,424.900055 171.580307,425.926331 174.643906,425.929382 
	C261.805206,426.015625 348.966644,425.984650 436.127991,426.070831 
	C438.632660,426.073303 441.136261,427.140625 443.640381,427.711426 
	C443.094910,429.349457 442.549438,430.987488 441.805542,432.880554 
z"/>
<path fill="#4DBDB5" opacity="1.000000" stroke="none" 
	d="
M441.046082,342.241211 
	C438.905914,343.007080 436.558655,343.935089 434.210510,343.937408 
	C357.607330,344.013214 281.004059,343.990265 204.400848,344.044800 
	C201.986832,344.046539 199.573273,344.710815 196.839111,345.415710 
	C193.753174,343.761841 190.987610,341.758484 188.295471,339.116821 
	C190.550674,337.985687 192.732117,337.063995 194.914383,337.062042 
	C276.183258,336.990387 357.452179,337.003662 438.721130,337.005432 
	C439.426971,338.660889 440.132782,340.316345 441.046082,342.241211 
z"/>
<path fill="#CE6AAE" opacity="1.000000" stroke="none" 
	d="
M448.140442,407.999329 
	C447.860016,410.104767 447.579590,412.210236 446.645325,414.660095 
	C394.581604,415.002563 343.171722,415.000244 291.761871,414.998962 
	C256.157654,414.998077 220.553284,415.032379 184.949478,414.909088 
	C182.951996,414.902191 180.958984,413.601929 178.963882,412.903656 
	C185.933609,411.778900 192.892395,409.762177 199.874847,409.676636 
	C240.090134,409.183777 280.311310,409.191711 320.529724,408.917633 
	C327.919922,408.867279 335.313904,408.407654 342.689819,407.899506 
	C344.568207,407.770081 346.383972,406.731171 348.767822,406.477966 
	C351.341400,407.230560 353.374878,407.945770 355.410004,407.950439 
	C386.320007,408.021484 417.230286,407.999542 448.140442,407.999329 
z"/>
<path fill="#E461B1" opacity="1.000000" stroke="none" 
	d="
M443.837646,427.402679 
	C441.136261,427.140625 438.632660,426.073303 436.127991,426.070831 
	C348.966644,425.984650 261.805206,426.015625 174.643906,425.929382 
	C171.580307,425.926331 168.517731,424.900055 165.177872,424.070190 
	C165.648239,422.834930 166.395432,421.880127 167.955719,420.943115 
	C255.991943,420.973907 343.215118,420.969360 430.438202,421.045990 
	C435.395447,421.050354 440.352081,421.719696 445.309021,422.079559 
	C444.884338,423.751007 444.459625,425.422485 443.837646,427.402679 
z"/>
<path fill="#DA66B0" opacity="1.000000" stroke="none" 
	d="
M178.605164,412.919281 
	C180.958984,413.601929 182.951996,414.902191 184.949478,414.909088 
	C220.553284,415.032379 256.157654,414.998077 291.761871,414.998962 
	C343.171722,415.000244 394.581604,415.002563 446.454651,415.004028 
	C446.771576,416.145203 446.625275,417.286835 445.802765,418.714050 
	C356.852325,418.999725 268.578033,419.013184 180.303818,418.947784 
	C177.024048,418.945374 173.744843,418.174805 170.465378,417.762207 
	C173.059067,416.153107 175.652756,414.544006 178.605164,412.919281 
z"/>
<path fill="#3EC6B6" opacity="1.000000" stroke="none" 
	d="
M177.547104,328.502441 
	C180.079468,328.122345 182.741516,328.006897 185.403549,328.006561 
	C265.153687,327.996979 344.903839,328.011810 424.653931,327.934296 
	C426.993622,327.932037 429.332367,326.974915 431.896545,326.122711 
	C433.359955,327.636078 434.598389,329.489716 435.475159,331.667419 
	C353.655151,331.994385 272.196808,331.979889 190.738617,332.071503 
	C187.860947,332.074738 184.984451,333.130615 182.107407,333.695892 
	C180.630539,332.070831 179.153656,330.445801 177.547104,328.502441 
z"/>
<path fill="#849AB3" opacity="1.000000" stroke="none" 
	d="
M340.318970,367.291321 
	C341.966949,366.403046 343.949341,365.097443 345.937134,365.089142 
	C376.820892,364.959869 407.705353,365.020813 438.589508,364.958649 
	C441.210052,364.953369 443.829468,364.385162 446.882935,363.997925 
	C447.858154,367.342712 448.399841,370.768066 448.499451,374.601929 
	C446.577087,375.191498 445.096680,375.530579 443.616577,375.529541 
	C426.028717,375.516968 408.440643,375.373230 390.853210,375.435699 
	C381.196838,375.470001 371.541626,375.829376 361.885895,376.042175 
	C355.801331,370.728027 348.334839,368.839447 340.318970,367.291321 
z"/>
<path fill="#C076B1" opacity="1.000000" stroke="none" 
	d="
M448.333557,407.647034 
	C417.230286,407.999542 386.320007,408.021484 355.410004,407.950439 
	C353.374878,407.945770 351.341400,407.230560 349.150696,406.491028 
	C353.437683,403.482391 357.881134,400.828613 362.933563,398.268311 
	C365.495667,398.574921 367.448486,398.970612 369.401886,398.973633 
	C395.944519,399.014435 422.487244,399.000793 449.029907,399.000610 
	C448.862183,401.765320 448.694427,404.529999 448.333557,407.647034 
z"/>
<path fill="#968EB1" opacity="1.000000" stroke="none" 
	d="
M362.005676,376.367676 
	C371.541626,375.829376 381.196838,375.470001 390.853210,375.435699 
	C408.440643,375.373230 426.028717,375.516968 443.616577,375.529541 
	C445.096680,375.530579 446.577087,375.191498 448.445251,375.005646 
	C449.046661,378.033051 449.260193,381.065277 448.903351,384.545227 
	C420.941223,384.995667 393.549469,384.998413 366.157715,385.001129 
	C364.813629,382.231812 363.469543,379.462494 362.005676,376.367676 
z"/>
<path fill="#45C1B6" opacity="1.000000" stroke="none" 
	d="
M438.695984,336.711151 
	C357.452179,337.003662 276.183258,336.990387 194.914383,337.062042 
	C192.732117,337.063995 190.550674,337.985687 188.146790,338.814209 
	C186.545670,337.977112 185.166611,336.804230 184.080444,335.265533 
	C187.338425,334.599823 190.303299,334.040161 193.268585,334.037903 
	C274.554596,333.975739 355.840637,333.970367 437.126678,333.955566 
	C437.641418,334.776001 438.156158,335.596436 438.695984,336.711151 
z"/>
<path fill="#A687B3" opacity="1.000000" stroke="none" 
	d="
M366.090973,385.428589 
	C393.549469,384.998413 420.941223,384.995667 448.797485,384.990112 
	C449.390503,387.139771 449.518982,389.292267 449.024445,391.755066 
	C420.792725,391.999725 393.184052,391.934052 365.575348,391.868408 
	C365.724976,389.864288 365.874603,387.860138 366.090973,385.428589 
z"/>
<path fill="#B27FB2" opacity="1.000000" stroke="none" 
	d="
M365.345398,392.107483 
	C393.184052,391.934052 420.792725,391.999725 448.896057,392.093506 
	C449.362549,394.138885 449.334381,396.156219 449.168091,398.587067 
	C422.487244,399.000793 395.944519,399.014435 369.401886,398.973633 
	C367.448486,398.970612 365.495667,398.574921 363.218903,398.084961 
	C363.635315,395.987610 364.375397,394.167114 365.345398,392.107483 
z"/>
<path fill="#DF64B1" opacity="1.000000" stroke="none" 
	d="
M170.165543,417.870972 
	C173.744843,418.174805 177.024048,418.945374 180.303818,418.947784 
	C268.578033,419.013184 356.852325,418.999725 445.600220,418.998657 
	C445.954590,419.853668 445.835297,420.709595 445.512512,421.822540 
	C440.352081,421.719696 435.395447,421.050354 430.438202,421.045990 
	C343.215118,420.969360 255.991943,420.973907 168.288040,420.942963 
	C168.493423,419.943268 169.179565,418.961487 170.165543,417.870972 
z"/>
<path fill="#43C3B6" opacity="1.000000" stroke="none" 
	d="
M437.111389,333.658081 
	C355.840637,333.970367 274.554596,333.975739 193.268585,334.037903 
	C190.303299,334.040161 187.338425,334.599823 183.919098,334.959442 
	C183.072678,334.730499 182.680527,334.441833 182.197906,333.924530 
	C184.984451,333.130615 187.860947,332.074738 190.738617,332.071503 
	C272.196808,331.979889 353.655151,331.994385 435.585999,331.987915 
	C436.404388,332.443085 436.750214,332.901855 437.111389,333.658081 
z"/>
<path fill="#20D8B7" opacity="1.000000" stroke="none" 
	d="
M739.440918,318.976990 
	C739.352600,309.824158 739.198425,300.671387 739.188232,291.518494 
	C739.155823,262.371338 738.979187,233.221802 739.317139,204.078506 
	C739.400940,196.849747 740.482971,189.436966 742.415771,182.472183 
	C745.154236,172.604050 752.039856,165.770386 761.760864,162.380295 
	C774.430542,157.961838 787.299133,157.843002 799.985291,162.329849 
	C812.215759,166.655533 819.174255,175.717422 821.636841,188.249771 
	C822.434692,192.310379 822.876709,196.509766 822.882385,200.646515 
	C822.935669,239.786469 822.859558,278.926575 822.278748,318.525665 
	C794.304810,318.982117 766.872864,318.979553 739.440918,318.976990 
z"/>
<path fill="#20D8B7" opacity="1.000000" stroke="none" 
	d="
M490.391998,319.973572 
	C490.307159,309.660339 490.161133,299.347198 490.149231,289.033905 
	C490.116150,260.403595 490.039673,231.772583 490.220734,203.143372 
	C490.258331,197.195236 490.743195,191.120544 492.049805,185.336349 
	C494.907318,172.686172 503.075378,164.632782 515.595215,161.413406 
	C526.097778,158.712769 536.720215,159.005081 547.207947,161.778610 
	C563.344177,166.045929 570.740479,177.504578 572.737488,193.260391 
	C573.050659,195.730927 573.191345,198.239746 573.192261,200.730942 
	C573.206543,240.180511 573.185059,279.630066 572.605835,319.537842 
	C544.823975,319.988525 517.607971,319.981049 490.391998,319.973572 
z"/>
<path fill="#FD51AF" opacity="1.000000" stroke="none" 
	d="
M611.103027,432.346863 
	C595.100159,448.491852 579.171021,464.710785 563.069641,480.756897 
	C551.546692,492.240295 536.941467,493.033783 522.089050,491.284302 
	C503.462341,489.090179 492.670044,478.057251 490.840271,459.399353 
	C489.951294,450.334717 490.370575,441.141846 490.647217,431.736664 
	C493.232330,431.642975 495.367645,431.971649 497.503326,431.973633 
	C532.219360,432.005676 566.935425,431.987335 601.651489,432.011627 
	C604.802063,432.013824 607.952515,432.230011 611.103027,432.346863 
z"/>
<path fill="#FD51AF" opacity="1.000000" stroke="none" 
	d="
M822.516968,432.020630 
	C822.501770,440.172119 823.090332,448.378448 822.356384,456.464691 
	C820.284546,479.291992 807.830322,490.669128 784.924500,491.862091 
	C769.251282,492.678345 756.093506,488.483124 745.089233,476.412231 
	C731.633057,461.651794 717.062805,447.907074 703.264893,433.327698 
	C705.842712,432.621979 708.129639,432.044464 710.417297,432.041412 
	C747.783813,431.991516 785.150391,432.014252 822.516968,432.020630 
z"/>
<path fill="#5DB3B4" opacity="1.000000" stroke="none" 
	d="
M822.613220,342.015778 
	C822.671936,345.708832 822.730652,349.401886 822.244263,353.545593 
	C711.269409,353.996246 600.839600,353.996246 490.409760,353.996277 
	C490.338959,350.300476 490.268127,346.604645 490.743103,342.455383 
	C518.511902,342.003113 545.734985,342.004364 572.958069,342.005585 
	C573.163025,343.250732 573.367920,344.495880 573.721680,346.645416 
	C576.256714,344.213257 578.312866,342.240570 580.824158,340.503235 
	C583.132019,341.159485 584.984253,341.945068 586.837585,341.947815 
	C632.646790,342.015869 678.455994,342.019440 724.265198,341.949768 
	C726.701477,341.946075 729.136597,341.199158 731.572266,340.798218 
	C733.725464,342.774231 735.878662,344.750275 738.667786,347.309906 
	C738.910522,345.382782 739.074768,344.079285 739.776978,342.391846 
	C767.747681,342.010529 795.180481,342.013153 822.613220,342.015778 
z"/>
<path fill="#71A6B4" opacity="1.000000" stroke="none" 
	d="
M490.306702,354.445007 
	C600.839600,353.996246 711.269409,353.996246 822.140198,353.995392 
	C822.647949,357.364441 822.714722,360.734314 822.235352,364.552124 
	C711.262939,364.999512 600.836548,364.998901 490.410156,364.998322 
	C490.341339,361.630127 490.272491,358.261932 490.306702,354.445007 
z"/>
<path fill="#859BB4" opacity="1.000000" stroke="none" 
	d="
M490.308044,365.443451 
	C600.836548,364.998901 711.262939,364.999512 822.129578,364.999512 
	C822.637817,368.036316 822.705811,371.073761 822.320557,374.579163 
	C809.039062,375.129761 796.210815,375.266327 783.382507,375.277405 
	C773.657715,375.285797 763.932617,375.056152 754.208008,375.076752 
	C745.130676,375.095978 736.053772,375.409760 726.976746,375.402802 
	C717.195251,375.395294 707.414185,375.104767 697.632324,375.052765 
	C690.065002,375.012543 682.496643,375.200836 674.928833,375.195038 
	C665.533752,375.187836 656.138733,375.024109 646.743835,375.038696 
	C633.576294,375.059143 620.408997,375.228241 607.241455,375.245087 
	C597.515381,375.257507 587.788940,375.059937 578.063049,375.082001 
	C568.986572,375.102631 559.910400,375.384460 550.834229,375.377625 
	C541.051880,375.370270 531.270020,375.116486 521.487366,375.052429 
	C511.127289,374.984558 500.766632,375.013397 490.406219,375.000000 
	C490.339478,371.962860 490.272705,368.925720 490.308044,365.443451 
z"/>
<path fill="#21D6B5" opacity="1.000000" stroke="none" 
	d="
M601.968140,318.998108 
	C611.251892,309.759491 619.972290,299.851044 629.960388,291.449829 
	C642.788757,280.659698 676.037292,280.767761 688.904541,296.361877 
	C695.335876,304.156158 702.919250,310.999786 709.714722,318.756165 
	C707.655029,319.492889 705.862610,319.965729 704.069458,319.968231 
	C671.977783,320.012970 639.886047,320.018219 607.794434,319.957947 
	C605.851746,319.954285 603.910217,319.332336 601.968140,318.998108 
z"/>
<path fill="#9690B2" opacity="1.000000" stroke="none" 
	d="
M490.304138,375.435303 
	C500.766632,375.013397 511.127289,374.984558 521.487366,375.052429 
	C531.270020,375.116486 541.051880,375.370270 550.834229,375.377625 
	C559.910400,375.384460 568.986572,375.102631 578.063049,375.082001 
	C587.788940,375.059937 597.515381,375.257507 607.241455,375.245087 
	C620.408997,375.228241 633.576294,375.059143 646.743835,375.038696 
	C656.138733,375.024109 665.533752,375.187836 674.928833,375.195038 
	C682.496643,375.200836 690.065002,375.012543 697.632324,375.052765 
	C707.414185,375.104767 717.195251,375.395294 726.976746,375.402802 
	C736.053772,375.409760 745.130676,375.095978 754.208008,375.076752 
	C763.932617,375.056152 773.657715,375.285797 783.382507,375.277405 
	C796.210815,375.266327 809.039062,375.129761 822.214233,375.022461 
	C822.631287,377.375061 822.701355,379.752319 822.224670,382.564972 
	C711.254028,382.999786 600.830200,382.999176 490.406372,382.998566 
	C490.338257,380.622589 490.270142,378.246582 490.304138,375.435303 
z"/>
<path fill="#A189B3" opacity="1.000000" stroke="none" 
	d="
M490.304230,383.419250 
	C600.830200,382.999176 711.254028,382.999786 822.117310,382.998566 
	C822.626099,384.391327 822.695374,385.785858 822.217896,387.589874 
	C770.117126,387.999542 718.562988,387.970001 667.009277,388.095001 
	C664.633484,388.100739 662.261169,389.493164 659.887207,390.239746 
	C657.876648,388.368530 655.859070,387.211975 653.352478,389.928467 
	C650.959778,389.118225 649.016235,388.074402 647.070801,388.070923 
	C596.945862,387.981262 546.820679,387.988403 496.695587,388.044556 
	C494.784393,388.046692 492.873901,388.703064 490.824310,389.044495 
	C490.685516,389.034393 490.408569,389.006317 490.408569,389.006317 
	C490.339752,387.284180 490.270905,385.562042 490.304230,383.419250 
z"/>
<path fill="#47C0B5" opacity="1.000000" stroke="none" 
	d="
M731.350464,340.521606 
	C729.136597,341.199158 726.701477,341.946075 724.265198,341.949768 
	C678.455994,342.019440 632.646790,342.015869 586.837585,341.947815 
	C584.984253,341.945068 583.132019,341.159485 581.132080,340.372803 
	C584.210510,336.666077 587.436096,333.325165 591.423096,329.936523 
	C595.806702,330.258789 599.428162,330.941589 603.051147,330.950134 
	C637.500732,331.031647 671.950745,331.046814 706.400208,330.943390 
	C711.185303,330.929016 715.968079,330.167603 720.751953,329.752014 
	C724.210876,333.249664 727.669739,336.747345 731.350464,340.521606 
z"/>
<path fill="#E85DB0" opacity="1.000000" stroke="none" 
	d="
M611.382568,432.250610 
	C607.952515,432.230011 604.802063,432.013824 601.651489,432.011627 
	C566.935425,431.987335 532.219360,432.005676 497.503326,431.973633 
	C495.367645,431.971649 493.232330,431.642975 490.750885,431.285339 
	C490.336151,427.708038 490.267334,424.311676 490.744324,420.465332 
	C532.207214,420.010681 573.124451,419.984070 614.041443,420.049561 
	C616.825500,420.054016 619.608459,420.749725 622.391968,421.123901 
	C618.815308,424.800720 615.238708,428.477539 611.382568,432.250610 
z"/>
<path fill="#D66AB1" opacity="1.000000" stroke="none" 
	d="
M622.687378,420.998657 
	C619.608459,420.749725 616.825500,420.054016 614.041443,420.049561 
	C573.124451,419.984070 532.207214,420.010681 490.847839,420.016388 
	C490.338470,416.979736 490.271301,413.942078 490.747772,410.459290 
	C500.428436,410.009430 509.565491,410.001068 518.702515,410.000641 
	C554.087830,409.999054 589.473267,409.959259 624.857971,410.102112 
	C626.965576,410.110596 629.067200,411.590973 631.171631,412.386444 
	C628.442017,415.215454 625.712341,418.044434 622.687378,420.998657 
z"/>
<path fill="#33CCB6" opacity="1.000000" stroke="none" 
	d="
M720.591431,329.428345 
	C715.968079,330.167603 711.185303,330.929016 706.400208,330.943390 
	C671.950745,331.046814 637.500732,331.031647 603.051147,330.950134 
	C599.428162,330.941589 595.806702,330.258789 591.709717,329.815674 
	C594.607666,326.245209 597.980469,322.747803 601.660645,319.124268 
	C603.910217,319.332336 605.851746,319.954285 607.794434,319.957947 
	C639.886047,320.018219 671.977783,320.012970 704.069458,319.968231 
	C705.862610,319.965729 707.655029,319.492889 709.849182,319.070129 
	C713.643982,322.302429 717.037415,325.703552 720.591431,329.428345 
z"/>
<path fill="#C374B1" opacity="1.000000" stroke="none" 
	d="
M631.483887,412.244324 
	C629.067200,411.590973 626.965576,410.110596 624.857971,410.102112 
	C589.473267,409.959259 554.087830,409.999054 518.702515,410.000641 
	C509.565491,410.001068 500.428436,410.009430 490.849365,410.015259 
	C490.337341,407.310242 490.267365,404.604187 490.741150,401.455505 
	C538.822998,401.008606 586.361145,400.973328 633.898865,401.103485 
	C635.992065,401.109222 638.081116,402.627228 640.172058,403.440857 
	C637.380127,406.327972 634.588135,409.215057 631.483887,412.244324 
z"/>
<path fill="#C075B0" opacity="1.000000" stroke="none" 
	d="
M679.889709,410.258636 
	C677.308350,407.793060 674.726929,405.327545 672.225708,402.220428 
	C674.639038,401.052979 676.971436,400.072998 679.305725,400.068359 
	C724.774231,399.977905 770.243042,400.014130 815.711670,399.963135 
	C817.989136,399.960602 820.265930,399.403961 822.542969,399.105347 
	C822.617371,401.781616 822.691711,404.457886 822.214966,407.570862 
	C776.539185,408.004608 731.414368,407.970886 686.289917,408.094849 
	C684.154602,408.100708 682.023071,409.505402 679.889709,410.258636 
z"/>
<path fill="#D06DB1" opacity="1.000000" stroke="none" 
	d="
M680.023071,410.556885 
	C682.023071,409.505402 684.154602,408.100708 686.289917,408.094849 
	C731.414368,407.970886 776.539185,408.004608 822.102539,408.005859 
	C822.612183,410.381500 822.683167,412.758759 822.203491,415.570557 
	C779.174438,416.003387 736.695984,415.968109 694.218079,416.099304 
	C692.095947,416.105835 689.978210,417.556610 687.858459,418.334900 
	C685.291077,415.841644 682.723755,413.348358 680.023071,410.556885 
z"/>
<path fill="#DF64B1" opacity="1.000000" stroke="none" 
	d="
M687.989380,418.632141 
	C689.978210,417.556610 692.095947,416.105835 694.218079,416.099304 
	C736.695984,415.968109 779.174438,416.003387 822.090698,416.002747 
	C822.602600,418.378693 822.676575,420.756927 822.198730,423.570038 
	C781.856934,424.003296 742.066711,423.966644 702.277100,424.096802 
	C700.143738,424.103790 698.014893,425.514160 695.883972,426.271240 
	C693.296082,423.823944 690.708191,421.376648 687.989380,418.632141 
z"/>
<path fill="#41BBAE" opacity="1.000000" stroke="none" 
	d="
M822.719055,341.564056 
	C795.180481,342.013153 767.747681,342.010529 739.875122,342.012360 
	C739.358948,338.308716 739.282715,334.600616 739.754639,330.442200 
	C767.747253,329.992157 795.191772,329.992432 822.636230,329.992706 
	C822.699158,333.699249 822.762024,337.405792 822.719055,341.564056 
z"/>
<path fill="#ED5BB0" opacity="1.000000" stroke="none" 
	d="
M696.010742,426.569763 
	C698.014893,425.514160 700.143738,424.103790 702.277100,424.096802 
	C742.066711,423.966644 781.856934,424.003296 822.084534,424.002167 
	C822.597412,426.384094 822.672729,428.768768 822.632507,431.587036 
	C785.150391,432.014252 747.783813,431.991516 710.417297,432.041412 
	C708.129639,432.044464 705.842712,432.621979 703.123535,433.013947 
	C700.506897,431.019897 698.322205,428.944122 696.010742,426.569763 
z"/>
<path fill="#47C0B5" opacity="1.000000" stroke="none" 
	d="
M573.062012,341.554199 
	C545.734985,342.004364 518.511902,342.003113 490.846924,342.005432 
	C490.333221,338.311218 490.261475,334.613525 490.732300,330.461304 
	C518.509460,330.006683 545.744080,330.006531 572.978699,330.006378 
	C573.041077,333.705170 573.103516,337.403992 573.062012,341.554199 
z"/>
<path fill="#B57BB0" opacity="1.000000" stroke="none" 
	d="
M640.481689,403.286865 
	C638.081116,402.627228 635.992065,401.109222 633.898865,401.103485 
	C586.361145,400.973328 538.822998,401.008606 490.842529,401.015320 
	C490.331085,399.295013 490.262085,397.572296 490.739197,395.427582 
	C538.566650,395.004150 585.848022,394.969574 633.129272,395.051819 
	C637.918457,395.060150 642.706543,395.772614 647.495117,396.158295 
	C645.260498,398.483185 643.025879,400.808044 640.481689,403.286865 
z"/>
<path fill="#2FC9B1" opacity="1.000000" stroke="none" 
	d="
M822.733276,329.543243 
	C795.191772,329.992432 767.747253,329.992157 739.861938,329.991943 
	C739.352600,326.618622 739.284119,323.245239 739.328247,319.424438 
	C766.872864,318.979553 794.304810,318.982117 822.180786,318.983734 
	C822.693298,322.353119 822.761841,325.723450 822.733276,329.543243 
z"/>
<path fill="#2FC7B0" opacity="1.000000" stroke="none" 
	d="
M573.084778,329.561462 
	C545.744080,330.006531 518.509460,330.006683 490.831848,330.011169 
	C490.316376,326.964966 490.243927,323.914398 490.281738,320.418701 
	C517.607971,319.981049 544.823975,319.988525 572.506836,319.997498 
	C573.046082,323.038177 573.118469,326.077362 573.084778,329.561462 
z"/>
<path fill="#A885B3" opacity="1.000000" stroke="none" 
	d="
M660.003784,390.526611 
	C662.261169,389.493164 664.633484,388.100739 667.009277,388.095001 
	C718.562988,387.970001 770.117126,387.999542 822.110107,387.997009 
	C822.619873,389.066864 822.690613,390.139038 822.215149,391.604675 
	C770.938782,391.998810 720.208557,391.983154 669.478455,392.054871 
	C667.270569,392.058014 665.063904,392.863953 662.856628,393.295929 
	C661.944580,392.468445 661.032471,391.640961 660.003784,390.526611 
z"/>
<path fill="#AD81B1" opacity="1.000000" stroke="none" 
	d="
M647.776367,396.018738 
	C642.706543,395.772614 637.918457,395.060150 633.129272,395.051819 
	C585.848022,394.969574 538.566650,395.004150 490.842926,395.007507 
	C490.334381,393.288177 490.268219,391.567017 490.305298,389.426086 
	C490.408569,389.006317 490.685516,389.034393 490.978821,389.402771 
	C493.297638,390.180725 495.322693,390.945190 497.348755,390.947998 
	C545.615784,391.014893 593.882935,390.978394 642.149902,391.050293 
	C645.266113,391.054932 648.381287,391.780701 651.496948,392.171021 
	C650.350525,393.407074 649.204041,394.643127 647.776367,396.018738 
z"/>
<path fill="#B67EB2" opacity="1.000000" stroke="none" 
	d="
M822.644043,398.745178 
	C820.265930,399.403961 817.989136,399.960602 815.711670,399.963135 
	C770.243042,400.014130 724.774231,399.977905 679.305725,400.068359 
	C676.971436,400.072998 674.639038,401.052979 672.084534,401.925171 
	C670.226929,400.756470 668.590637,399.241394 667.260071,397.326874 
	C669.858032,396.618408 672.149902,396.042297 674.442444,396.039764 
	C721.869324,395.987366 769.296265,395.989349 816.723145,396.038788 
	C818.663269,396.040802 820.602783,396.611267 822.542542,396.916870 
	C822.610046,397.406281 822.677551,397.895660 822.644043,398.745178 
z"/>
<path fill="#A886B3" opacity="1.000000" stroke="none" 
	d="
M651.727112,392.082153 
	C648.381287,391.780701 645.266113,391.054932 642.149902,391.050293 
	C593.882935,390.978394 545.615784,391.014893 497.348755,390.947998 
	C495.322693,390.945190 493.297638,390.180725 491.117615,389.412842 
	C492.873901,388.703064 494.784393,388.046692 496.695587,388.044556 
	C546.820679,387.988403 596.945862,387.981262 647.070801,388.070923 
	C649.016235,388.074402 650.959778,389.118225 653.045593,390.083923 
	C652.777039,390.991486 652.367188,391.492371 651.727112,392.082153 
z"/>
<path fill="#AF81B2" opacity="1.000000" stroke="none" 
	d="
M662.941772,393.552429 
	C665.063904,392.863953 667.270569,392.058014 669.478455,392.054871 
	C720.208557,391.983154 770.938782,391.998810 822.107788,391.996063 
	C822.612976,392.441895 822.679260,392.889832 822.205566,393.667908 
	C772.733459,393.998718 723.801270,393.971222 674.869324,394.063416 
	C671.608154,394.069550 668.348694,394.984314 665.088440,395.476501 
	C664.401245,394.920654 663.714111,394.364807 662.941772,393.552429 
z"/>
<path fill="#B280B2" opacity="1.000000" stroke="none" 
	d="
M665.209351,395.746338 
	C668.348694,394.984314 671.608154,394.069550 674.869324,394.063416 
	C723.801270,393.971222 772.733459,393.998718 822.104187,393.995972 
	C822.613586,394.729706 822.684387,395.465546 822.648865,396.559113 
	C820.602783,396.611267 818.663269,396.040802 816.723145,396.038788 
	C769.296265,395.989349 721.869324,395.987366 674.442444,396.039764 
	C672.149902,396.042297 669.858032,396.618408 667.135498,397.012695 
	C666.246887,396.737366 665.788635,396.376801 665.209351,395.746338 
z"/>
<path fill="#0B0700" opacity="1.000000" stroke="none" 
	d="
M431.332825,274.048584 
	C439.640594,270.752289 447.591034,267.531494 455.678436,264.255219 
	C455.678436,275.174042 455.678436,286.758820 455.678436,299.702209 
	C450.365784,294.228760 445.950134,289.351929 441.166656,284.867462 
	C438.029785,281.926666 434.362946,279.550720 430.929596,276.926849 
	C429.670532,275.964630 428.060669,275.011444 431.332825,274.048584 
z"/>
</svg>